<svg class="thumb" width="1000" height="1000" viewBox="0,0,600,600" xmlns="http://www.w3.org/2000/svg" xmlns:inkscape="http://www.inkscape.org/namespaces/inkscape" xmlns:sodipodi="http://sodipodi.sourceforge.net/DTD/sodipodi-0.dtd" xmlns:xlink="http://www.w3.org/1999/xlink" xmlns:ns1="http://www.inkscape.org/namespaces/inkscape" xmlns:sketch="http://www.bohemiancoding.com/sketch/ns">
  <defs></defs>
  <g transform="matrix(1.3872,0,0,1.3872,-26.2521,20.3034)">
    <g transform="matrix(1.3243,0,0,1.3243,76.8732,0.3685)">
      <svg width="239.09002795386522" height="303.94545904750004" viewBox="-5.0000021122039024,-4.997729523749999,239.09002795386522,303.94545904750004">
        <defs>
          <linearGradient x1="0" y1="0.5" x2="1" y2="0.5" id="linearGradientSkhcfg3z04">
            <stop offset="0%" stop-color="#4ba4db"></stop>
            <stop offset="100%" stop-color="#4ba4db"></stop>
          </linearGradient>
        </defs>
        <g></g>
        <g></g>
        <g>
          <path d="M229.09,241.19V52.78A14.25,14.25,0,0,0,220,39.47L119.66.95a14.25,14.25,0,0,0-10.22,0L9.14,39.47A14.25,14.25,0,0,0,0,52.78V241.19a14.25,14.25,0,0,0,9.14,13.3L109.44,293a14.25,14.25,0,0,0,10.22,0L220,254.49A14.25,14.25,0,0,0,229.09,241.19Z" style="" fill="url('#linearGradientSkhcfg3z04')" stroke="none"></path>
        </g>
      </svg>
    </g>
    <g transform="matrix(1,0,0,1,189.127,72.5)">
      <svg width="60.779206332871944" height="83.57920633287193" viewBox="-0.22920633287194914,12.870793667128051,60.779206332871944,83.57920633287193">
        <defs>
          <linearGradient x1="0" y1="0.5" x2="1" y2="0.5" id="linearGradientSkhcfg3z0a">
            <stop offset="0%" stop-color="#ffffff"></stop>
            <stop offset="100%" stop-color="#ffffff"></stop>
          </linearGradient>
        </defs>
        <g></g>
        <g>
          <path d="M14.9,19.6c8.9-4.2,19.5-0.5,23.8,8.4c2.8,5.8,2.2,12.5-1.4,17.8l18.1,37.9c0.2,0.5,0.2,1.1,0,1.6c-0.6,1.1-1,2.3-1.4,3.5    c-0.1,0.5-0.5,0.9-0.9,1.1l-3,1.4c-0.5,0.2-1,0.2-1.5,0L45.8,90c-0.4-0.2-0.7-0.5-0.9-0.9l-1.3-2.7l-1.9-0.8c-0.8-0.3-1.2-1.2-1-2    l0.5-2.3l-1.8-3.7L36.6,77c-0.5-0.1-1-0.5-1.2-1L33,70.8c-0.3-0.6-0.2-1.3,0.2-1.9l1.3-1.6l-1.2-2.5l-2.9-0.4    c-0.6-0.1-1.1-0.4-1.4-1l-1.7-3.5l-2.9-1.1c-0.4-0.2-0.7-0.5-0.9-0.9l-2.1-4.4C15.1,53,9.3,49.2,6.5,43.4    C2.3,34.5,6,23.8,14.9,19.6z M51.9,84.4L33.7,46.3c-0.3-0.6-0.2-1.3,0.2-1.9c3.4-4.3,4-10,1.6-14.9c-3.4-7.1-11.9-10.1-19.1-6.7    C9.3,26.2,6.3,34.7,9.7,41.8c2.4,5,7.3,8.1,12.9,8.1c0.7,0,1.3,0.4,1.6,1l2.3,4.8l2.9,1.1c0.4,0.2,0.7,0.5,0.9,0.9l1.6,3.3    l2.9,0.4c0.6,0.1,1.1,0.4,1.4,1l2.1,4.4c0.3,0.6,0.2,1.3-0.2,1.9l-1.3,1.6l1.6,3.4l2.8,0.6c0.5,0.1,1,0.5,1.2,1l2.4,5    c0.2,0.4,0.2,0.7,0.1,1.1l-0.3,1.4l1.2,0.5c0.4,0.2,0.7,0.5,0.9,0.9l1.3,2.7l1.4,0.6l1.6-0.7C51.1,86.1,51.5,85.2,51.9,84.4z     M17.5,25.1c2.8-1.3,6.1-0.1,7.4,2.6c1.3,2.8,0.1,6.1-2.6,7.4c-2.8,1.3-6.1,0.1-7.4-2.6C13.6,29.7,14.8,26.4,17.5,25.1z     M20.8,31.8c1-0.5,1.4-1.7,0.9-2.6c-0.5-1-1.7-1.4-2.6-0.9c-1,0.5-1.4,1.7-0.9,2.6C18.6,31.9,19.8,32.3,20.8,31.8z" fill="url('#linearGradientSkhcfg3z0a')" stroke="none" style=""></path>
        </g>
      </svg>
    </g>
    <g transform="matrix(1,0,0,1,207.627,63)">
      <svg width="81.03938769133981" height="54.32201687447474" viewBox="19.2,3.5436685504745036,81.03938769133981,54.32201687447474">
        <defs>
          <linearGradient x1="0" y1="0.5" x2="1" y2="0.5" id="linearGradientSkhcfg3z0g">
            <stop offset="0%" stop-color="#ffffff"></stop>
            <stop offset="100%" stop-color="#ffffff"></stop>
          </linearGradient>
        </defs>
        <g></g>
        <g>
          <path d="M95.1,46.4c-0.5-1.1-0.9-2.3-1.2-3.5c-0.1-0.5-0.5-1-1-1.2L54.5,24.5c-0.7-6.3-4.6-11.8-10.5-14.4    c-6.9-3.1-14.7-1.4-19.8,3.6c1.6,0.1,3.1,0.4,4.6,0.8c3.9-2.6,9.1-3.3,13.7-1.2c5,2.2,8.2,7,8.5,12.4c0,0.7,0.4,1.3,1.1,1.5    l38.6,17.2c0.2,0.9,0.5,1.7,0.9,2.6l-0.7,1.6l-1.5,0.5l-2.8-1.2c-0.4-0.2-0.8-0.2-1.2-0.1l-1.2,0.4l-0.7-1.3    c-0.2-0.3-0.5-0.6-0.8-0.8l-5.1-2.3c-0.5-0.2-1.1-0.2-1.5,0l-2.5,1.3l-3.5-1.5l-0.1-2.1c0-0.7-0.4-1.3-1.1-1.6l-4.4-2    c-0.6-0.2-1.2-0.2-1.7,0.1l-2.4,1.6l-3.3-1.5c-0.4-0.2-0.9-0.2-1.3-0.1l-2.9,1L47.9,37c-0.6-0.3-1.3-0.2-1.9,0.3    c-0.4,0.4-0.9,0.7-1.3,1c-0.2,1.6-0.5,3.1-1,4.5c1.3-0.6,2.6-1.3,3.7-2.1l4.5,2c0.4,0.2,0.9,0.2,1.3,0.1l2.9-1l3.6,1.6    c0.6,0.2,1.2,0.2,1.7-0.1l2.4-1.6l2.5,1.1l0.1,2.1c0,0.7,0.4,1.3,1.1,1.6l5.3,2.3c0.5,0.2,1.1,0.2,1.5,0l2.5-1.3l3.7,1.7l1.1,2    c0.4,0.7,1.3,1.1,2.1,0.9l2-0.6l2.8,1.2c0.4,0.2,0.8,0.2,1.2,0.1l2.9-0.9c0.5-0.1,0.9-0.5,1.1-1l1.3-3    C95.3,47.4,95.3,46.8,95.1,46.4z" fill="url('#linearGradientSkhcfg3z0g')" stroke="none" style=""></path>
        </g>
      </svg>
    </g>
    <g transform="matrix(0.8459,0,0,0.8459,154.2137,166.3634)">
      <svg width="192.8" height="175" style="overflow: visible;">
        <defs>
          <linearGradient x1="0" y1="0.5" x2="1" y2="0.5" id="linearGradientSkhcfg3z0s">
            <stop offset="0%" stop-color="#ffffff"></stop>
            <stop offset="100%" stop-color="#ffffff"></stop>
          </linearGradient>
        </defs>
        <g transform="matrix(1,0,0,1,0,86.25)">
          <path d="M 14.3 0L 6.3 0L 6.3-70L 18.7-70Q 26.2-70  30.25-65.15Q 34.3-60.3  34.3-47.6L 34.3-47.6L 34.3-47.1Q 34.3-34.4  30.25-29.6Q 26.2-24.8  18.7-24.8L 18.7-24.8L 14.3-24.8L 14.3 0ZM 26.4-45.8L 26.4-45.8L 26.4-48.9Q 26.4-63.6  18.7-63.6L 18.7-63.6L 14.3-63.6L 14.3-31.1L 18.7-31.1Q 26.4-31.1  26.4-45.8ZM 50.300000000000004 0L 42.6 0L 42.6-54L 50.300000000000004-54L 50.300000000000004 0ZM 50.60000000000001-64.6L 42.300000000000004-64.6L 42.300000000000004-74L 50.60000000000001-74L 50.60000000000001-64.6ZM 89.39999999999999-14Q 88.69999999999999-5.3  85.3-1.9Q 81.89999999999999 1.5  75.44999999999999 1.5Q 69 1.5  65.25-3.05Q 61.49999999999999-7.6  61.49999999999999-19.5L 61.49999999999999-19.5L 61.49999999999999-34.5Q 61.49999999999999-46.4  65.25-50.95Q 69-55.5  75.8-55.5Q 82.6-55.5  86.1-51Q 89.6-46.5  89.6-34.5L 89.6-34.5L 89.6-23.8L 69.1-23.8L 69.1-18.1Q 69.1-4.7  75.5-4.7L 75.5-4.7Q 78.6-4.7  80.3-6.9Q 82-9.1  82.69999999999999-15.1L 82.69999999999999-15.1L 89.39999999999999-14ZM 69.1-35.9L 69.1-35.9L 69.1-30.2L 81.89999999999999-30.2L 81.89999999999999-35.9Q 81.89999999999999-49.3  75.6-49.3L 75.6-49.3Q 69.1-49.3  69.1-35.9ZM 117.49999999999999-55.5L 117.49999999999999-55.5L 119.49999999999999-55.4L 118.89999999999998-46.9Q 117.49999999999999-47.6  116.19999999999999-47.6L 116.19999999999999-47.6Q 108.59999999999998-47.6  108.49999999999999-31.8L 108.49999999999999-31.8L 108.49999999999999 0L 100.79999999999998 0L 100.79999999999998-54L 105.49999999999999-54L 107.69999999999999-44.8Q 109.69999999999999-55.5  117.49999999999999-55.5ZM 152.10000000000002-15.7Q 151.3-6  147.8-2.25Q 144.3 1.5  138.25000000000003 1.5Q 132.20000000000002 1.5  128.70000000000002-2.75Q 125.20000000000003-7  125.20000000000003-17.5L 125.20000000000003-17.5L 125.20000000000003-34.5Q 125.20000000000003-46.4  128.70000000000002-50.95Q 132.20000000000002-55.5  138.25000000000003-55.5Q 144.3-55.5  147.70000000000002-52.2Q 151.10000000000002-48.9  151.8-40.3L 151.8-40.3L 144.8-38.4Q 144.40000000000003-49.3  138.70000000000002-49.3L 138.70000000000002-49.3Q 135.8-49.3  134.3-46.7Q 132.8-44.1  132.8-35.9L 132.8-35.9L 132.8-16.8Q 132.8-9.8  134.35000000000002-7.3Q 135.90000000000003-4.8  138.8-4.8Q 141.70000000000002-4.8  143.3-7.25Q 144.90000000000003-9.7  145.60000000000002-16.7L 145.60000000000002-16.7L 152.10000000000002-15.7ZM 187.70000000000005-14Q 187.00000000000003-5.3  183.60000000000002-1.9Q 180.20000000000005 1.5  173.75000000000003 1.5Q 167.30000000000004 1.5  163.55000000000004-3.05Q 159.80000000000004-7.6  159.80000000000004-19.5L 159.80000000000004-19.5L 159.80000000000004-34.5Q 159.80000000000004-46.4  163.55000000000004-50.95Q 167.30000000000004-55.5  174.10000000000002-55.5Q 180.90000000000003-55.5  184.40000000000003-51Q 187.90000000000003-46.5  187.90000000000003-34.5L 187.90000000000003-34.5L 187.90000000000003-23.8L 167.40000000000003-23.8L 167.40000000000003-18.1Q 167.40000000000003-4.7  173.80000000000004-4.7L 173.80000000000004-4.7Q 176.90000000000003-4.7  178.60000000000002-6.9Q 180.30000000000004-9.1  181.00000000000003-15.1L 181.00000000000003-15.1L 187.70000000000005-14ZM 167.40000000000003-35.9L 167.40000000000003-35.9L 167.40000000000003-30.2L 180.20000000000005-30.2L 180.20000000000005-35.9Q 180.20000000000005-49.3  173.90000000000003-49.3L 173.90000000000003-49.3Q 167.40000000000003-49.3  167.40000000000003-35.9Z" data-textpath="Pierce" data-text-anchor="middle" data-font-size="100" data-letterspacing="0" data-side="left" data-offset="0.5" data-dx="0" data-dy="0" data-xmlspace="preserve" data-href="" data-font="Pathway Gothic One" data-font-src="/Content/clientfonts/pathwaygothicone.woff" data-font-scale="contain" transform="translate(0,0)" data-x="0" data-y="0" fill="url('#linearGradientSkhcfg3z0s')"></path>
        </g>
      </svg>
    </g>
    <g transform="matrix(0.8459,0,0,0.8459,89.113,235.3634)">
      <svg width="342" height="175" style="overflow: visible;">
        <defs>
          <linearGradient x1="0" y1="0.5" x2="1" y2="0.5" id="linearGradientSkhcfg3z0v">
            <stop offset="0%" stop-color="#ffffff"></stop>
            <stop offset="100%" stop-color="#ffffff"></stop>
          </linearGradient>
        </defs>
        <g transform="matrix(1,0,0,1,0,86.25)">
          <path d="M 14.3 0L 6.3 0L 6.3-70L 18.7-70Q 26.1-70  30.2-65.3Q 34.3-60.6  34.3-48.4L 34.3-48.4L 34.3-47.9Q 34.3-32.7  26.9-28.6L 26.9-28.6L 35.2 0L 27 0L 19.2-26.8L 14.3-26.8L 14.3 0ZM 26.4-46.9L 26.4-46.9L 26.4-49.9Q 26.4-57.6  24.35-60.6Q 22.3-63.6  18.7-63.6L 18.7-63.6L 14.3-63.6L 14.3-33.1L 18.7-33.1Q 26.4-33.1  26.4-46.9ZM 71.4-14Q 70.70000000000002-5.3  67.30000000000001-1.9Q 63.900000000000006 1.5  57.45000000000001 1.5Q 51.00000000000001 1.5  47.25000000000001-3.05Q 43.50000000000001-7.6  43.50000000000001-19.5L 43.50000000000001-19.5L 43.50000000000001-34.5Q 43.50000000000001-46.4  47.25000000000001-50.95Q 51.00000000000001-55.5  57.80000000000001-55.5Q 64.60000000000001-55.5  68.10000000000001-51Q 71.60000000000001-46.5  71.60000000000001-34.5L 71.60000000000001-34.5L 71.60000000000001-23.8L 51.10000000000001-23.8L 51.10000000000001-18.1Q 51.10000000000001-4.7  57.50000000000001-4.7L 57.50000000000001-4.7Q 60.60000000000001-4.7  62.30000000000001-6.9Q 64-9.1  64.70000000000002-15.1L 64.70000000000002-15.1L 71.4-14ZM 51.10000000000001-35.9L 51.10000000000001-35.9L 51.10000000000001-30.2L 63.900000000000006-30.2L 63.900000000000006-35.9Q 63.900000000000006-49.3  57.60000000000001-49.3L 57.60000000000001-49.3Q 51.10000000000001-49.3  51.10000000000001-35.9ZM 81.00000000000001-16.7Q 81.00000000000001-26.2  83.80000000000001-29.65Q 86.60000000000001-33.1  91.80000000000001-33.1Q 97.00000000000001-33.1  100.00000000000001-29.1L 100.00000000000001-29.1L 100.00000000000001-39.6Q 100.00000000000001-49.2  94.00000000000001-49.2L 94.00000000000001-49.2Q 88.90000000000002-49.2  84.30000000000001-43.3L 84.30000000000001-43.3L 81.60000000000001-48.9Q 83.90000000000002-51.7  87.45000000000002-53.6Q 91.00000000000001-55.5  94.70000000000002-55.5L 94.70000000000002-55.5Q 107.70000000000002-55.5  107.70000000000002-37.9L 107.70000000000002-37.9L 107.70000000000002 0L 103.00000000000001 0L 101.4-6.5Q 100.30000000000001-2.5  97.75000000000001-0.5Q 95.20000000000002 1.5  92.00000000000001 1.5L 92.00000000000001 1.5Q 86.60000000000001 1.5  83.80000000000001-1.95Q 81.00000000000001-5.4  81.00000000000001-14.9L 81.00000000000001-14.9L 81.00000000000001-16.7ZM 93.60000000000002-4.8L 93.60000000000002-4.8Q 96.50000000000001-4.8  98.15-6.9Q 99.80000000000001-9  100.00000000000001-14.5L 100.00000000000001-14.5L 100.00000000000001-17.2Q 99.80000000000001-23.1  98.15-25.4Q 96.50000000000001-27.7  93.60000000000002-27.7L 93.60000000000002-27.7Q 88.60000000000001-27.7  88.60000000000001-18.2L 88.60000000000001-18.2L 88.60000000000001-14.3Q 88.60000000000001-4.8  93.60000000000002-4.8ZM 127.30000000000001 0L 119.60000000000001 0L 119.60000000000001-74L 127.30000000000001-74L 127.30000000000001 0ZM 177.90000000000006-31.7L 162.30000000000007-31.7L 162.30000000000007-6.4L 179.70000000000005-6.4L 179.70000000000005 0L 154.30000000000007 0L 154.30000000000007-70L 179.40000000000006-70L 179.40000000000006-63.6L 162.30000000000007-63.6L 162.30000000000007-38.1L 177.90000000000006-38.1L 177.90000000000006-31.7ZM 208-12.1L 208-12.1Q 208-17.8  203.8-20.8L 203.8-20.8L 196.9-25.7Q 189.20000000000002-30.8  189.20000000000002-40.8L 189.20000000000002-40.8Q 189.20000000000002-48.9  192.65-52.2Q 196.1-55.5  202-55.5Q 207.9-55.5  211.20000000000002-52.4Q 214.5-49.3  215.20000000000002-41.1L 215.20000000000002-41.1L 208.3-39.7Q 207.8-49.4  202.15-49.4Q 196.5-49.4  196.5-41.5L 196.5-41.5Q 196.5-35.1  200.70000000000002-32L 200.70000000000002-32L 207.3-27.4Q 209.8-25.7  211.25-24.35Q 212.70000000000002-23  214.05-19.85Q 215.4-16.7  215.4-12.5L 215.4-12.5Q 215.4-4.8  211.8-1.65Q 208.20000000000002 1.5  202.05 1.5Q 195.9 1.5  192.4-2.15Q 188.9-5.8  188.1-15L 188.1-15L 195.20000000000002-16.3Q 195.6-9.8  197.25-7.2Q 198.9-4.6  201.8-4.6L 201.8-4.6Q 208-4.6  208-12.1ZM 226.50000000000003-47.8L 221.50000000000003-47.8L 221.50000000000003-54L 226.80000000000004-54L 229.50000000000003-67.3L 234.10000000000002-67.3L 234.10000000000002-54L 241.20000000000002-54L 241.20000000000002-47.8L 234.10000000000002-47.8L 234.10000000000002-10.2Q 234.10000000000002-4.9  237.00000000000003-4.9L 237.00000000000003-4.9Q 238.90000000000003-4.9  241.00000000000003-6.5L 241.00000000000003-6.5L 242.50000000000003-0.6Q 239.10000000000002 1.5  235.50000000000003 1.5L 235.50000000000003 1.5Q 226.50000000000003 1.5  226.50000000000003-11.8L 226.50000000000003-11.8L 226.50000000000003-47.8ZM 247.9-16.7Q 247.9-26.2  250.70000000000002-29.65Q 253.5-33.1  258.7-33.1Q 263.9-33.1  266.9-29.1L 266.9-29.1L 266.9-39.6Q 266.9-49.2  260.9-49.2L 260.9-49.2Q 255.8-49.2  251.20000000000002-43.3L 251.20000000000002-43.3L 248.5-48.9Q 250.8-51.7  254.35-53.6Q 257.9-55.5  261.6-55.5L 261.6-55.5Q 274.6-55.5  274.6-37.9L 274.6-37.9L 274.6 0L 269.9 0L 268.3-6.5Q 267.2-2.5  264.65-0.5Q 262.1 1.5  258.9 1.5L 258.9 1.5Q 253.5 1.5  250.70000000000002-1.95Q 247.9-5.4  247.9-14.9L 247.9-14.9L 247.9-16.7ZM 260.5-4.8L 260.5-4.8Q 263.4-4.8  265.05-6.9Q 266.7-9  266.9-14.5L 266.9-14.5L 266.9-17.2Q 266.7-23.1  265.05-25.4Q 263.4-27.7  260.5-27.7L 260.5-27.7Q 255.5-27.7  255.5-18.2L 255.5-18.2L 255.5-14.3Q 255.5-4.8  260.5-4.8ZM 287.20000000000005-47.8L 282.20000000000005-47.8L 282.20000000000005-54L 287.50000000000006-54L 290.20000000000005-67.3L 294.80000000000007-67.3L 294.80000000000007-54L 301.90000000000003-54L 301.90000000000003-47.8L 294.80000000000007-47.8L 294.80000000000007-10.2Q 294.80000000000007-4.9  297.70000000000005-4.9L 297.70000000000005-4.9Q 299.6-4.9  301.70000000000005-6.5L 301.70000000000005-6.5L 303.20000000000005-0.6Q 299.80000000000007 1.5  296.20000000000005 1.5L 296.20000000000005 1.5Q 287.20000000000005 1.5  287.20000000000005-11.8L 287.20000000000005-11.8L 287.20000000000005-47.8ZM 336.9000000000001-14Q 336.2000000000001-5.3  332.80000000000007-1.9Q 329.4000000000001 1.5  322.9500000000001 1.5Q 316.50000000000006 1.5  312.75000000000006-3.05Q 309.00000000000006-7.6  309.00000000000006-19.5L 309.00000000000006-19.5L 309.00000000000006-34.5Q 309.00000000000006-46.4  312.75000000000006-50.95Q 316.50000000000006-55.5  323.30000000000007-55.5Q 330.1000000000001-55.5  333.6000000000001-51Q 337.1000000000001-46.5  337.1000000000001-34.5L 337.1000000000001-34.5L 337.1000000000001-23.8L 316.6000000000001-23.8L 316.6000000000001-18.1Q 316.6000000000001-4.7  323.00000000000006-4.7L 323.00000000000006-4.7Q 326.1000000000001-4.7  327.80000000000007-6.9Q 329.50000000000006-9.1  330.2000000000001-15.1L 330.2000000000001-15.1L 336.9000000000001-14ZM 316.6000000000001-35.9L 316.6000000000001-35.9L 316.6000000000001-30.2L 329.4000000000001-30.2L 329.4000000000001-35.9Q 329.4000000000001-49.3  323.1000000000001-49.3L 323.1000000000001-49.3Q 316.6000000000001-49.3  316.6000000000001-35.9Z" data-textpath="Real Estate" data-text-anchor="middle" data-font-size="100" data-letterspacing="0" data-side="left" data-offset="0.5" data-dx="0" data-dy="0" data-xmlspace="preserve" data-href="" data-font="Pathway Gothic One" data-font-src="/Content/clientfonts/pathwaygothicone.woff" data-font-scale="contain" transform="translate(0,0)" data-x="0" data-y="0" fill="url('#linearGradientSkhcfg3z0v')"></path>
        </g>
      </svg>
    </g>
  </g>
</svg>